<svg xmlns="http://www.w3.org/2000/svg" width="980" height="520" viewBox="0 0 980 520">
<rect width="100%" height="100%" fill="#ffffff"/>
<text x="490.00" y="30.00" text-anchor="middle" font-size="22" font-weight="700" fill="#1f2937">Perplexity Gap: Delta NLL by Dialect</text>
<text x="490.00" y="54.00" text-anchor="middle" font-size="13" fill="#6b7280">Positive values mean dialect paraphrases are more surprising to the reference LM</text>
<line x1="86" y1="357.39" x2="946" y2="357.39" stroke="#374151" stroke-width="1"/>
<line x1="86" y1="70" x2="86" y2="434" stroke="#374151" stroke-width="1"/>
<line x1="86" y1="434.00" x2="946" y2="434.00" stroke="#e5e7eb"/>
<text x="76.00" y="438.00" text-anchor="end" font-size="12" fill="#4b5563">-0.23</text>
<line x1="86" y1="361.20" x2="946" y2="361.20" stroke="#e5e7eb"/>
<text x="76.00" y="365.20" text-anchor="end" font-size="12" fill="#4b5563">-0.01</text>
<line x1="86" y1="288.40" x2="946" y2="288.40" stroke="#e5e7eb"/>
<text x="76.00" y="292.40" text-anchor="end" font-size="12" fill="#4b5563">0.21</text>
<line x1="86" y1="215.60" x2="946" y2="215.60" stroke="#e5e7eb"/>
<text x="76.00" y="219.60" text-anchor="end" font-size="12" fill="#4b5563">0.43</text>
<line x1="86" y1="142.80" x2="946" y2="142.80" stroke="#e5e7eb"/>
<text x="76.00" y="146.80" text-anchor="end" font-size="12" fill="#4b5563">0.65</text>
<line x1="86" y1="70.00" x2="946" y2="70.00" stroke="#e5e7eb"/>
<text x="76.00" y="74.00" text-anchor="end" font-size="12" fill="#4b5563">0.86</text>
<rect x="120.40" y="357.39" width="74.53" height="32.49" fill="#54A24B" rx="2"/>
<text x="157.67" y="407.88" text-anchor="middle" font-size="12" fill="#111827">-0.098</text>
<line x1="157.67" y1="408.25" x2="157.67" y2="373.45" stroke="#1f2937" stroke-width="1.5"/>
<line x1="151.67" y1="408.25" x2="163.67" y2="408.25" stroke="#1f2937" stroke-width="1.5"/>
<line x1="151.67" y1="373.45" x2="163.67" y2="373.45" stroke="#1f2937" stroke-width="1.5"/>
<text x="157.67" y="464.00" text-anchor="middle" font-size="13" font-weight="700" fill="#111827">PNB</text>
<rect x="263.73" y="274.41" width="74.53" height="82.98" fill="#E45756" rx="2"/>
<text x="301.00" y="266.41" text-anchor="middle" font-size="12" fill="#111827">0.250</text>
<line x1="301.00" y1="302.72" x2="301.00" y2="245.30" stroke="#1f2937" stroke-width="1.5"/>
<line x1="295.00" y1="302.72" x2="307.00" y2="302.72" stroke="#1f2937" stroke-width="1.5"/>
<line x1="295.00" y1="245.30" x2="307.00" y2="245.30" stroke="#1f2937" stroke-width="1.5"/>
<text x="301.00" y="464.00" text-anchor="middle" font-size="13" font-weight="700" fill="#111827">PNN</text>
<rect x="407.07" y="185.55" width="74.53" height="171.84" fill="#E45756" rx="2"/>
<text x="444.33" y="177.55" text-anchor="middle" font-size="12" fill="#111827">0.517</text>
<line x1="444.33" y1="229.45" x2="444.33" y2="140.81" stroke="#1f2937" stroke-width="1.5"/>
<line x1="438.33" y1="229.45" x2="450.33" y2="229.45" stroke="#1f2937" stroke-width="1.5"/>
<line x1="438.33" y1="140.81" x2="450.33" y2="140.81" stroke="#1f2937" stroke-width="1.5"/>
<text x="444.33" y="464.00" text-anchor="middle" font-size="13" font-weight="700" fill="#111827">PNT1</text>
<rect x="550.40" y="114.12" width="74.53" height="243.27" fill="#E45756" rx="2"/>
<text x="587.67" y="106.12" text-anchor="middle" font-size="12" fill="#111827">0.732</text>
<line x1="587.67" y1="147.80" x2="587.67" y2="77.23" stroke="#1f2937" stroke-width="1.5"/>
<line x1="581.67" y1="147.80" x2="593.67" y2="147.80" stroke="#1f2937" stroke-width="1.5"/>
<line x1="581.67" y1="77.23" x2="593.67" y2="77.23" stroke="#1f2937" stroke-width="1.5"/>
<text x="587.67" y="464.00" text-anchor="middle" font-size="13" font-weight="700" fill="#111827">PNT2</text>
<rect x="693.73" y="135.28" width="74.53" height="222.11" fill="#E45756" rx="2"/>
<text x="731.00" y="127.28" text-anchor="middle" font-size="12" fill="#111827">0.668</text>
<line x1="731.00" y1="163.90" x2="731.00" y2="104.00" stroke="#1f2937" stroke-width="1.5"/>
<line x1="725.00" y1="163.90" x2="737.00" y2="163.90" stroke="#1f2937" stroke-width="1.5"/>
<line x1="725.00" y1="104.00" x2="737.00" y2="104.00" stroke="#1f2937" stroke-width="1.5"/>
<text x="731.00" y="464.00" text-anchor="middle" font-size="13" font-weight="700" fill="#111827">PNT3</text>
<rect x="837.07" y="250.71" width="74.53" height="106.67" fill="#E45756" rx="2"/>
<text x="874.33" y="242.71" text-anchor="middle" font-size="12" fill="#111827">0.321</text>
<line x1="874.33" y1="279.37" x2="874.33" y2="220.96" stroke="#1f2937" stroke-width="1.5"/>
<line x1="868.33" y1="279.37" x2="880.33" y2="279.37" stroke="#1f2937" stroke-width="1.5"/>
<line x1="868.33" y1="220.96" x2="880.33" y2="220.96" stroke="#1f2937" stroke-width="1.5"/>
<text x="874.33" y="464.00" text-anchor="middle" font-size="13" font-weight="700" fill="#111827">PNT4</text>
<text x="24.00" y="252.00" transform="rotate(-90 24 252.0)" text-anchor="middle" font-size="14" fill="#374151">Mean delta NLL</text>
</svg>